<svg viewBox="0 0 1200 1346" width="1200" height="1346" xmlns="http://www.w3.org/2000/svg" xmlns:c2pa="http://c2pa.org/manifest"><metadata><c2pa:manifest>AAAWgmp1bWIAAAAeanVtZGMycGEAEQAQgAAAqgA4m3EDYzJwYQAAABZcanVtYgAAAEdqdW1kYzJtYQARABCAAACqADibcQN1cm46YzJwYTpiNWE0Yzg0Ni1mOTRkLTQ4NzItYmFkMC1lM2Q0NjBjNTg4ZTcAAAADl2p1bWIAAAApanVtZGMyYXMAEQAQgAAAqgA4m3EDYzJwYS5hc3NlcnRpb25zAAAAALxqdW1iAAAARGp1bWRjYm9yABEAEIAAAKoAOJtxE2MycGEuaW5ncmVkaWVudC52MwAAAAAYYzJzaBzP1qjqCxUW4G7iEpMFAjMAAABwY2JvcqNpZGM6Zm9ybWF0bWltYWdlL3N2Zyt4bWxqaW5zdGFuY2VJRHgseG1wOmlpZDpkN2E2OTU3MC1jMzJkLTRhMDYtYTIzYi1mYTYyOWM2YzZkNDVscmVsYXRpb25zaGlwaHBhcmVudE9mAAAB4mp1bWIAAABBanVtZGNib3IAEQAQgAAAqgA4m3ETYzJwYS5hY3Rpb25zLnYyAAAAABhjMnNoumPDocbJRLyG+9iPdC466gAAAZljYm9yomdhY3Rpb25zgqJmYWN0aW9ua2MycGEub3BlbmVkanBhcmFtZXRlcnOha2luZ3JlZGllbnRzgaJjdXJseC1zZWxmI2p1bWJmPWMycGEuYXNzZXJ0aW9ucy9jMnBhLmluZ3JlZGllbnQudjNkaGFzaFggHuCC0ZsGRHBODsaYk9QkcNJaR/IdKiJFeANGbvZbfMGkZmFjdGlvbngdY29tLmFudGhyb3BpYy5jbGF1ZGUucHJvdmlkZWRqcGFyYW1ldGVyc6F4H2NvbS5hbnRocm9waWMub3JpZ2luLWNvbmZpZGVuY2VndW5rbm93bmtkZXNjcmlwdGlvbnhmQ2xhdWRlIHByb3ZpZGVkIHRoaXMgZmlsZSBhdCB0aGUgcmVxdWVzdCBvZiBhIHVzZXIgYW5kIG1heSBoYXZlIGNyZWF0ZWQgb3IgbW9kaWZpZWQgdGhlIGZpbGUgY29udGVudHMubXNvZnR3YXJlQWdlbnShZG5hbWVmQ2xhdWRlcmFsbEFjdGlvbnNJbmNsdWRlZPUAAADIanVtYgAAAEBqdW1kY2JvcgARABCAAACqADibcRNjMnBhLmhhc2guZGF0YQAAAAAYYzJzaE4shbK7R7IxYQjW6wzZQNAAAACAY2JvcqVjYWxnZnNoYTI1NmNwYWRNAAAAAAAAAAAAAAAAAGRoYXNoWCAMuZ+/XmHf2oqfOZm7/l2MmU8G+Wi7tAu+xEF5jfgx+mRuYW1lbmp1bWJmIG1hbmlmZXN0amV4Y2x1c2lvbnOBomVzdGFydBiaZmxlbmd0aBkeBAAAAj5qdW1iAAAAJ2p1bWRjMmNsABEAEIAAAKoAOJtxA2MycGEuY2xhaW0udjIAAAACD2Nib3KlY2FsZ2ZzaGEyNTZpc2lnbmF0dXJleE1zZWxmI2p1bWJmPS9jMnBhL3VybjpjMnBhOmI1YTRjODQ2LWY5NGQtNDg3Mi1iYWQwLWUzZDQ2MGM1ODhlNy9jMnBhLnNpZ25hdHVyZWppbnN0YW5jZUlEeCx4bXA6aWlkOmViZmIwZDIzLTc0MzYtNDE2OS04MmY1LWMxOGU1YjEwMWMzYXJjcmVhdGVkX2Fzc2VydGlvbnODomN1cmx4LXNlbGYjanVtYmY9YzJwYS5hc3NlcnRpb25zL2MycGEuaW5ncmVkaWVudC52M2RoYXNoWCAe4ILRmwZEcE4OxpiT1CRw0lpH8h0qIkV4A0Zu9lt8waJjdXJseCpzZWxmI2p1bWJmPWMycGEuYXNzZXJ0aW9ucy9jMnBhLmFjdGlvbnMudjJkaGFzaFggLih5hFlJZJxbuM18k36ewGBcWw2mjE+s0ffKWPuN8GeiY3VybHgpc2VsZiNqdW1iZj1jMnBhLmFzc2VydGlvbnMvYzJwYS5oYXNoLmRhdGFkaGFzaFggvO6p5T8y2Z1OpHXjsLuoqW5OvC//OqKBUApdy6h6lX50Y2xhaW1fZ2VuZXJhdG9yX2luZm+jZG5hbWVvQW50aHJvcGljIEZpbGVzZ3ZlcnNpb25lMS4wLjBrc3BlY1ZlcnNpb25lMi40LjAAABA4anVtYgAAAChqdW1kYzJjcwARABCAAACqADibcQNjMnBhLnNpZ25hdHVyZQAAABAIY2JvctKEWQISogEmGCFZAgowggIGMIIBjaADAgECAhRA5aAK7sI50L64g/oGQgU9Z1UTADAKBggqhkjOPQQDAzBJMRcwFQYDVQQKEw5BbnRocm9waWMsIFBCQzEuMCwGA1UEAxMlQW50aHJvcGljIENvbnRlbnQgQ3JlZGVudGlhbHMgUm9vdCBDQTAeFw0yNjA4MDcxODQzNTZaFw0yODA4MDYxOTQzNTZaMEQxFzAVBgNVBAoTDkFudGhyb3BpYywgUEJDMSkwJwYDVQQDEyBBbnRocm9waWMgQ2xhdWRlIENvbnRlbnQgU2lnbmluZzBZMBMGByqGSM49AgEGCCqGSM49AwEHA0IABJh6CmvLUBgFFNU0vUKlOVtE6djd17L5SuwX0LemFisBM3dkd/3cyjxFA3Qo5S46fX0/ihY0VZ7mfb9KF703t5OjWDBWMA4GA1UdDwEB/wQEAwIHgDAVBgNVHSUEDjAMBgorBgEEAYPoXgIBMAwGA1UdEwEB/wQCMAAwHwYDVR0jBBgwFoAUzlHiBIFOZFsj+OPEz5o+nMHXXMIwCgYIKoZIzj0EAwMDZwAwZAIwMXMdFJ4BetLLVY7ORuE9noqbbAZOZn/aArXyTwFAZfKrPzxF2vPoJNf1+UCdg1XGAjBwX1zd9WGqYkqmL5SFqw1QySjr1zJfpJM9+1rdDwSPLMOPOjKuiXjoU/pUUeG9RwmhY3BhZFkNngAAAAAAAAAAAAAAAAAAAAAAAAAAAAAAAAAAAAAAAAAAAAAAAAAAAAAAAAAAAAAAAAAAAAAAAAAAAAAAAAAAAAAAAAAAAAAAAAAAAAAAAAAAAAAAAAAAAAAAAAAAAAAAAAAAAAAAAAAAAAAAAAAAAAAAAAAAAAAAAAAAAAAAAAAAAAAAAAAAAAAAAAAAAAAAAAAAAAAAAAAAAAAAAAAAAAAAAAAAAAAAAAAAAAAAAAAAAAAAAAAAAAAAAAAAAAAAAAAAAAAAAAAAAAAAAAAAAAAAAAAAAAAAAAAAAAAAAAAAAAAAAAAAAAAAAAAAAAAAAAAAAAAAAAAAAAAAAAAAAAAAAAAAAAAAAAAAAAAAAAAAAAAAAAAAAAAAAAAAAAAAAAAAAAAAAAAAAAAAAAAAAAAAAAAAAAAAAAAAAAAAAAAAAAAAAAAAAAAAAAAAAAAAAAAAAAAAAAAAAAAAAAAAAAAAAAAAAAAAAAAAAAAAAAAAAAAAAAAAAAAAAAAAAAAAAAAAAAAAAAAAAAAAAAAAAAAAAAAAAAAAAAAAAAAAAAAAAAAAAAAAAAAAAAAAAAAAAAAAAAAAAAAAAAAAAAAAAAAAAAAAAAAAAAAAAAAAAAAAAAAAAAAAAAAAAAAAAAAAAAAAAAAAAAAAAAAAAAAAAAAAAAAAAAAAAAAAAAAAAAAAAAAAAAAAAAAAAAAAAAAAAAAAAAAAAAAAAAAAAAAAAAAAAAAAAAAAAAAAAAAAAAAAAAAAAAAAAAAAAAAAAAAAAAAAAAAAAAAAAAAAAAAAAAAAAAAAAAAAAAAAAAAAAAAAAAAAAAAAAAAAAAAAAAAAAAAAAAAAAAAAAAAAAAAAAAAAAAAAAAAAAAAAAAAAAAAAAAAAAAAAAAAAAAAAAAAAAAAAAAAAAAAAAAAAAAAAAAAAAAAAAAAAAAAAAAAAAAAAAAAAAAAAAAAAAAAAAAAAAAAAAAAAAAAAAAAAAAAAAAAAAAAAAAAAAAAAAAAAAAAAAAAAAAAAAAAAAAAAAAAAAAAAAAAAAAAAAAAAAAAAAAAAAAAAAAAAAAAAAAAAAAAAAAAAAAAAAAAAAAAAAAAAAAAAAAAAAAAAAAAAAAAAAAAAAAAAAAAAAAAAAAAAAAAAAAAAAAAAAAAAAAAAAAAAAAAAAAAAAAAAAAAAAAAAAAAAAAAAAAAAAAAAAAAAAAAAAAAAAAAAAAAAAAAAAAAAAAAAAAAAAAAAAAAAAAAAAAAAAAAAAAAAAAAAAAAAAAAAAAAAAAAAAAAAAAAAAAAAAAAAAAAAAAAAAAAAAAAAAAAAAAAAAAAAAAAAAAAAAAAAAAAAAAAAAAAAAAAAAAAAAAAAAAAAAAAAAAAAAAAAAAAAAAAAAAAAAAAAAAAAAAAAAAAAAAAAAAAAAAAAAAAAAAAAAAAAAAAAAAAAAAAAAAAAAAAAAAAAAAAAAAAAAAAAAAAAAAAAAAAAAAAAAAAAAAAAAAAAAAAAAAAAAAAAAAAAAAAAAAAAAAAAAAAAAAAAAAAAAAAAAAAAAAAAAAAAAAAAAAAAAAAAAAAAAAAAAAAAAAAAAAAAAAAAAAAAAAAAAAAAAAAAAAAAAAAAAAAAAAAAAAAAAAAAAAAAAAAAAAAAAAAAAAAAAAAAAAAAAAAAAAAAAAAAAAAAAAAAAAAAAAAAAAAAAAAAAAAAAAAAAAAAAAAAAAAAAAAAAAAAAAAAAAAAAAAAAAAAAAAAAAAAAAAAAAAAAAAAAAAAAAAAAAAAAAAAAAAAAAAAAAAAAAAAAAAAAAAAAAAAAAAAAAAAAAAAAAAAAAAAAAAAAAAAAAAAAAAAAAAAAAAAAAAAAAAAAAAAAAAAAAAAAAAAAAAAAAAAAAAAAAAAAAAAAAAAAAAAAAAAAAAAAAAAAAAAAAAAAAAAAAAAAAAAAAAAAAAAAAAAAAAAAAAAAAAAAAAAAAAAAAAAAAAAAAAAAAAAAAAAAAAAAAAAAAAAAAAAAAAAAAAAAAAAAAAAAAAAAAAAAAAAAAAAAAAAAAAAAAAAAAAAAAAAAAAAAAAAAAAAAAAAAAAAAAAAAAAAAAAAAAAAAAAAAAAAAAAAAAAAAAAAAAAAAAAAAAAAAAAAAAAAAAAAAAAAAAAAAAAAAAAAAAAAAAAAAAAAAAAAAAAAAAAAAAAAAAAAAAAAAAAAAAAAAAAAAAAAAAAAAAAAAAAAAAAAAAAAAAAAAAAAAAAAAAAAAAAAAAAAAAAAAAAAAAAAAAAAAAAAAAAAAAAAAAAAAAAAAAAAAAAAAAAAAAAAAAAAAAAAAAAAAAAAAAAAAAAAAAAAAAAAAAAAAAAAAAAAAAAAAAAAAAAAAAAAAAAAAAAAAAAAAAAAAAAAAAAAAAAAAAAAAAAAAAAAAAAAAAAAAAAAAAAAAAAAAAAAAAAAAAAAAAAAAAAAAAAAAAAAAAAAAAAAAAAAAAAAAAAAAAAAAAAAAAAAAAAAAAAAAAAAAAAAAAAAAAAAAAAAAAAAAAAAAAAAAAAAAAAAAAAAAAAAAAAAAAAAAAAAAAAAAAAAAAAAAAAAAAAAAAAAAAAAAAAAAAAAAAAAAAAAAAAAAAAAAAAAAAAAAAAAAAAAAAAAAAAAAAAAAAAAAAAAAAAAAAAAAAAAAAAAAAAAAAAAAAAAAAAAAAAAAAAAAAAAAAAAAAAAAAAAAAAAAAAAAAAAAAAAAAAAAAAAAAAAAAAAAAAAAAAAAAAAAAAAAAAAAAAAAAAAAAAAAAAAAAAAAAAAAAAAAAAAAAAAAAAAAAAAAAAAAAAAAAAAAAAAAAAAAAAAAAAAAAAAAAAAAAAAAAAAAAAAAAAAAAAAAAAAAAAAAAAAAAAAAAAAAAAAAAAAAAAAAAAAAAAAAAAAAAAAAAAAAAAAAAAAAAAAAAAAAAAAAAAAAAAAAAAAAAAAAAAAAAAAAAAAAAAAAAAAAAAAAAAAAAAAAAAAAAAAAAAAAAAAAAAAAAAAAAAAAAAAAAAAAAAAAAAAAAAAAAAAAAAAAAAAAAAAAAAAAAAAAAAAAAAAAAAAAAAAAAAAAAAAAAAAAAAAAAAAAAAAAAAAAAAAAAAAAAAAAAAAAAAAAAAAAAAAAAAAAAAAAAAAAAAAAAAAAAAAAAAAAAAAAAAAAAAAAAAAAAAAAAAAAAAAAAAAAAAAAAAAAAAAAAAAAAAAAAAAAAAAAAAAAAAAAAAAAAAAAAAAAAAAAAAAAAAAAAAAAAAAAAAAAAAAAAAAAAAAAAAAAAAAAAAAAAAAAAAAAAAAAAAAAAAAAAAAAAAAAAAAAAAAAAAAAAAAAAAAAAAAAAAAAAAAAAAAAAAAAAAAAAAAAAAAAAAAAAAAAAAAAAAAAAAAAAAAAAAAAAAAAAAAAAAAAAAAAAAAAAAAAAAAAAAAAAAAAAAAAAAAAAAAAAAAAAAAAAAAAAAAAAAAAAAAAAAAAAAAAAAAAAAAAAAAAAAAAAAAAAAAAAAAAAAAAAAAAAAAAAAAAAAAAAAAAAAAAAAAAAAAAAAAAAAAAAAAAAAAAAAAAAAAAAAAAAAAAAAAAAAAAAAAAAAAAAAAAAAAAAAAAAAAAAAAAAAAAAAAAAAAAAAAAAAAAAAAAAAAAAAAAAAAAAAAAAAAAAAAAAAAAAAAAAAAAAAAAAAAAAAAAAAAAAAAAAAAAAAAAAAAAAAAAAAAAAAAAAAAAAAAAAAAAAAAAAAAAAAAAAAAAAAAAAAAAAAAAAAAAAAAAAAAAAAAAAAAAAAAAAAAAAAAAAAAAAAAAAAAAAAAAAAAAAAAAAAAAAAAAAAAAAAAAAAAAAAAAAAAAAAAAAAAAAAAAAAAAAAAAAAAAAAAAAAAAAAAAAAAAAAAAAAAAAAAAAAAAAAAAAAAAAAAAAAAAAAAAAAAAAAAAAAAAAAAAAAAAAAAAAAAAAAAAAAAAAAAAAAAAAAAAAAAAAAAAAAAAAAAAAAAAAAAAAAAAAAAAAAAAAAAAAAAAAAAAAAAAAAAAAAAAAAAAAAAAAAAAAAAAAAAAAAAAAAAAAAAAAAAAAAAAAAAAAAAAAAAAAAAAAAAAAAAAAAAAAAAAAAAAAAAAAAAAAAAAAAAAAAAAAAAAAAAAAAAAAAAAAAAAAAAAAAAAAAAAAAAAAAAAAAAAAAAAAAAAAAAAAAAAAAAAAAAAAAAAAAAAAAAAAAAAAAAAAAAAAAAAAAAAAAAAAAAAAAAAAAAAAAAAAAAAAAAAAAAAAAAAAAAAAAAAAAAAAAAAAAAAAAAAAAAAAAAAAAAAAAAAAAAAAAAAAAAAAAAAAAAAAAAAAAAAAAAAAAAAAAAAAAAAAAAAAAAAAAAAAAAAAAAAAAAAAAAAAAAAAAAAAAAAAAAAAAAAAAAAAAAAAAAAAAAAAAAAAAAAAAAAAAAAAAAAAAAAAAAAAAAAAAAAAAAAAAAAAAAAAAAAAAAAAAAAAAAAAAAAAAAAAAAAAAAAAAAAAAAAAAAAAAAAAAAAAAAAAAAAAAAAAAAAAAAAAAAAAAAAAAAAAAAAAAAAAAAAAAAAAAAAAAAAAAAAAAAAAAAAAAAAAAAAAAAAAAAAAAAAAAAAAAAAAAAAAAAAAAAAAAAAAAAAAAAAAAAAAAAAAAAAAAAAAAAAAAAAAAAAAAAAAAAAAAAAAAAAAAAAAAAAAAAAAAAAAAAAAAAAAAAAAAAAPZYQDAu4g0MIEyw7VTnMymp7jkHL0CrgsEXLwkPOFRYC5YF92p0xIbnj+2U4XC6GEHVZQruWtgrqbZelcRWi0eZTFc=</c2pa:manifest></metadata>
<!-- Engineered by uncoalesced -->
<circle cx="513.33" cy="193.33" r="26.87" fill="#AD2F4A"/>
<rect x="571.40" y="164.73" width="57.20" height="57.20" rx="6.86" fill="#AD2F4A"/>
<circle cx="686.67" cy="193.33" r="26.87" fill="#EF2D56"/>
<circle cx="426.67" cy="280.00" r="26.87" fill="#EF2D56"/>
<circle cx="340.00" cy="366.67" r="26.87" fill="#EF2D56"/>
<circle cx="253.33" cy="453.33" r="26.87" fill="#AD2F4A"/>
<circle cx="253.33" cy="540.00" r="26.87" fill="#F47690"/>
<circle cx="253.33" cy="626.67" r="26.87" fill="#AD2F4A"/>
<circle cx="340.00" cy="713.33" r="26.87" fill="#F47690"/>
<circle cx="426.67" cy="800.00" r="26.87" fill="#EF2D56"/>
<rect x="484.73" y="858.07" width="57.20" height="57.20" rx="6.86" fill="#AD2F4A"/>
<rect x="571.40" y="858.07" width="57.20" height="57.20" rx="6.86" fill="#EF2D56"/>
<circle cx="686.67" cy="886.67" r="26.87" fill="#AD2F4A"/>
<circle cx="773.33" cy="800.00" r="26.87" fill="#F47690"/>
<circle cx="860.00" cy="713.33" r="26.87" fill="#EF2D56"/>
<rect x="918.07" y="598.07" width="57.20" height="57.20" rx="6.86" fill="#EF2D56"/>
<circle cx="946.67" cy="540.00" r="26.87" fill="#AD2F4A"/>
<circle cx="600.00" cy="366.67" r="26.87" fill="#AD2F4A"/>
<rect x="484.73" y="424.73" width="57.20" height="57.20" rx="6.86" fill="#EF2D56"/>
<circle cx="426.67" cy="540.00" r="26.87" fill="#EF2D56"/>
<circle cx="513.33" cy="626.67" r="26.87" fill="#EF2D56"/>
<rect x="571.40" y="684.73" width="57.20" height="57.20" rx="6.86" fill="#EF2D56"/>
<circle cx="686.67" cy="626.67" r="26.87" fill="#EF2D56"/>
<circle cx="773.33" cy="540.00" r="26.87" fill="#F47690"/>
<circle cx="686.67" cy="453.33" r="26.87" fill="#AD2F4A"/>
<circle cx="773.33" cy="366.67" r="26.87" fill="#EF2D56"/>
<circle cx="860.00" cy="280.00" r="26.87" fill="#F47690"/>
<path d="M219.63 1180V1077.7H236.37V1090.72H237.49Q238.6 1084.02 243.16 1079.93Q247.72 1075.84 254.41 1075.84Q260.74 1075.84 265.29 1079.84Q269.85 1083.84 271.71 1090.72H272.45Q273.76 1084.02 278.41 1079.93Q283.06 1075.84 290.12 1075.84Q299.24 1075.84 305.1 1083.19Q310.96 1090.53 310.96 1102.07V1180H293.1V1103Q293.1 1090.91 283.06 1090.91Q273.01 1090.91 273.01 1102.81V1180H257.57V1103Q257.57 1090.91 247.34 1090.91Q237.49 1090.91 237.49 1102.81V1180ZM366.57 1181.86Q350.57 1181.86 341.37 1173.58Q332.16 1165.31 332.16 1150.98Q332.16 1136.48 342.02 1128.2Q351.88 1119.92 369.17 1119.92H397.26V1110.44Q397.26 1102.07 391.96 1097.51Q386.66 1092.95 377.36 1092.95Q368.99 1092.95 363.31 1096.58Q357.64 1100.21 356.71 1105.97H337.18Q337.93 1097.04 343.23 1090.26Q348.53 1083.47 357.46 1079.65Q366.38 1075.84 377.73 1075.84Q395.96 1075.84 406.65 1085.05Q417.35 1094.25 417.35 1110.06V1180H397.82V1161.59H397.45Q395.96 1171.07 387.68 1176.47Q379.4 1181.86 366.57 1181.86ZM372.52 1166.61Q383.31 1166.61 390.28 1161.12Q397.26 1155.63 397.26 1147.08V1133.69H369.73Q361.55 1133.69 356.9 1137.96Q352.25 1142.24 352.25 1149.68Q352.25 1157.49 357.64 1162.05Q363.04 1166.61 372.52 1166.61ZM480.77 1181.86Q465.52 1181.86 456.32 1171.44Q447.11 1161.03 447.11 1143.36V1114.53Q447.11 1096.67 456.32 1086.26Q465.52 1075.84 480.77 1075.84Q491.75 1075.84 499.1 1081.33Q506.44 1086.81 508.49 1096.67H509.05L508.49 1073.42V1044.22H528.58V1180H508.67V1161.03H508.49Q506.44 1170.89 499.1 1176.37Q491.75 1181.86 480.77 1181.86ZM487.84 1164.38Q497.51 1164.38 503 1158.52Q508.49 1152.66 508.49 1141.87V1115.64Q508.49 1105.04 503 1099.18Q497.51 1093.32 487.84 1093.32Q478.17 1093.32 472.68 1099Q467.2 1104.67 467.2 1115.46V1142.24Q467.2 1153.03 472.68 1158.7Q478.17 1164.38 487.84 1164.38ZM559.82 1180V1044.22H579.91V1077.7L579.73 1097.23H579.91Q581.4 1087.19 588.47 1081.51Q595.54 1075.84 607.07 1075.84Q622.32 1075.84 631.43 1085.61Q640.55 1095.37 640.55 1111.92V1180H620.46V1114.16Q620.46 1104.11 615.07 1098.53Q609.67 1092.95 600.37 1092.95Q590.89 1092.95 585.4 1098.9Q579.91 1104.86 579.91 1115.46V1180ZM711.41 1181.86Q692.81 1181.86 681.93 1171.16Q671.05 1160.47 671.05 1142.06V1077.7H691.14V1141.87Q691.14 1152.66 696.53 1158.52Q701.93 1164.38 711.41 1164.38Q721.09 1164.38 726.57 1158.52Q732.06 1152.66 732.06 1141.87V1077.7H752.15V1142.06Q752.15 1160.47 741.08 1171.16Q730.01 1181.86 711.41 1181.86ZM823.94 1181.86Q804.79 1181.86 793.35 1171.26Q781.91 1160.66 781.91 1142.24V1115.46Q781.91 1097.04 793.35 1086.44Q804.79 1075.84 823.94 1075.84Q842.36 1075.84 853.52 1085.51Q864.68 1095.18 865.24 1111.92H845.52Q844.96 1103.18 839.2 1098.35Q833.43 1093.51 823.94 1093.51Q813.71 1093.51 807.86 1099.18Q802 1104.86 802 1115.27V1142.24Q802 1152.84 807.86 1158.52Q813.71 1164.19 823.94 1164.19Q833.43 1164.19 839.2 1159.35Q844.96 1154.52 845.52 1145.59H865.24Q864.68 1162.33 853.52 1172.09Q842.36 1181.86 823.94 1181.86ZM924.57 1181.86Q908.57 1181.86 899.37 1173.58Q890.16 1165.31 890.16 1150.98Q890.16 1136.48 900.02 1128.2Q909.88 1119.92 927.17 1119.92H955.26V1110.44Q955.26 1102.07 949.96 1097.51Q944.66 1092.95 935.36 1092.95Q926.99 1092.95 921.32 1096.58Q915.64 1100.21 914.71 1105.97H895.18Q895.93 1097.04 901.23 1090.26Q906.53 1083.47 915.46 1079.65Q924.38 1075.84 935.73 1075.84Q953.96 1075.84 964.65 1085.05Q975.35 1094.25 975.35 1110.06V1180H955.82V1161.59H955.45Q953.96 1171.07 945.68 1176.47Q937.4 1181.86 924.57 1181.86ZM930.52 1166.61Q941.31 1166.61 948.29 1161.12Q955.26 1155.63 955.26 1147.08V1133.69H927.73Q919.55 1133.69 914.9 1137.96Q910.25 1142.24 910.25 1149.68Q910.25 1157.49 915.64 1162.05Q921.04 1166.61 930.52 1166.61Z" fill="#FDFFFC"/>
</svg>
